<?xml version="1.0" encoding="utf-8"?>
<!-- Generator: Adobe Illustrator 24.2.2, SVG Export Plug-In . SVG Version: 6.00 Build 0)  -->
<svg version="1.1" id="Layer_1" xmlns="http://www.w3.org/2000/svg" xmlns:xlink="http://www.w3.org/1999/xlink" x="0px" y="0px"
	 viewBox="0 0 331.1 142.6" style="enable-background:new 0 0 331.1 142.6;" xml:space="preserve">
<style type="text/css">
	.st0{clip-path:url(#SVGID_2_);fill:#673483;}
</style>
<g>
	<defs>
		<rect id="SVGID_1_" width="331.1" height="142.6"/>
	</defs>
	<clipPath id="SVGID_2_">
		<use xlink:href="#SVGID_1_"  style="overflow:visible;"/>
	</clipPath>
	<path class="st0" d="M19.5,62.1C11.4,74,6.3,83.2,6.3,86.2c0,0.6,0.3,0.9,0.7,0.9c0.7,0.2,1.1,0.5,1.1,0.9c0,0.3-0.3,0.5-0.7,0.5
		c-0.3,0-0.6,0-0.9-0.2c-2.8-1.1-3.9-3.1-3.9-5.7c0-6,6.2-15.1,12.4-23.3c6.2-8.2,12.3-15.6,12.3-18.2c0-0.3,0-0.5-0.2-0.7
		c-0.2-0.2-0.3-0.4-0.3-0.7c0-0.3,0.1-0.5,0.3-0.5c0.1,0,0.3,0.2,0.4,0.4c0.8,1.1,1.3,2.3,1.3,3.8C28.9,47.9,24.8,54.2,19.5,62.1
		 M32.2,69.6c-3,0.9-6.2,1.4-7.9,1.4c-1.4,0-2.5-0.3-3.1-0.6c-0.9-0.5-1.3-0.9-1.3-1.2c0-0.6,1-1,2.7-1.5
		c13.4-3.9,29.9-13.5,29.9-22.5c0-1.5-0.5-3.1-1.5-4.5c-2.4-3.4-7-4.5-12.6-4.5c-12.9,0-30.4,6.3-35.5,6.3c-0.4,0-0.8-0.1-1-0.2
		c-1.5-0.7-2-1.4-2-2c0-1.5,2.9-2.6,3.5-2.6c0.1,0.2-0.9,0.5-0.9,0.8c0,0.1,0.1,0.2,0.3,0.2c2.7,0,20.4-5.1,34.6-5.1
		c6.3,0,11.9,1,15.3,3.9c2.7,2.3,4.5,5.8,4.5,9.5C57.3,54.6,50.3,64,32.2,69.6"/>
	<path class="st0" d="M85.9,84.4c-1.6,0.7-3.1,1.1-4.1,1.1c-1.5,0-2.4-0.7-2.7-2.1c-0.9-4.8,8.9-15.7,15.3-20
		c2.7,0.4,3.8,1.4,4.4,3.2c0.3,0.7,0.3,1.5,0.3,2.2C99.2,74.4,93.2,81.2,85.9,84.4 M101.2,65.9c-1-1.8-2.7-3.4-4.6-4.4
		c0.7-0.8,1.1-1.2,1.1-1.8c0-0.6-0.6-1.3-1.9-2.7c-0.4-0.4-0.8-0.6-1.2-0.6c-0.4,0-0.9,0.2-1.5,0.7c-4.4,3.1-9.8,8.2-13.6,13.5
		c0,0,0,0,0,0c-0.3,0-0.7,0.2-1.1,0.7c-4.5,4.7-8.6,8.7-11.7,11.1c-0.7,0.5-1.3,0.8-1.6,0.8c-0.3,0-0.4-0.2-0.4-0.5
		c0-0.4,0.3-1.2,0.7-2.1C67.4,76,71,70.1,71,66c0-0.8-0.2-1.5-0.4-2.1c-0.9-2.1-2.3-2.7-4.2-2.7c-1.2,0-2.5,0.3-4.1,0.7
		c-0.5,0.2-1,0-1-0.2c0-0.2,0.2-0.4,0.3-0.7c0.9-1.2,1.5-2.3,1.5-3.3c0-1.4-0.8-2.5-2.2-3.5c-0.3-0.3-0.9-0.4-1.4-0.4
		c-0.4,0-0.9,0.1-1.2,0.4c-1.8,1.8-2.9,3.7-2.9,5.6c0,1.3,0.4,2.5,1.3,3.7c0,0.4-6.3,8.5-9.6,11.7c-0.3,0.3-0.6,0.8-0.6,1
		c0,0.3,0.2,0.4,0.5,0.4c0.3,0,1-0.3,1.8-1c3.6-3.4,7.7-8.6,9.5-10.6c0.4-0.4,1.3-0.3,1.8-0.4c2-0.3,4-1.4,5.8-1.4
		c1.2,0,1.7,0.6,1.7,1.5c0,3.3-5.4,10.7-7.5,14.6c-0.9,1.7-1.3,3.1-1.3,4.2c0,1.9,1,3.1,2.6,4.2c0.5,0.3,1,0.5,1.5,0.5
		c1,0,1.7-0.5,3.7-2.2c3.2-2.9,6.7-6.6,10.2-10.3c-1,2.1-1.6,4.1-1.6,5.9c0,2.3,0.9,4.3,3.1,5.7c0.9,0.6,2,0.9,3.2,0.9
		c7.7,0,20.9-10.6,20.9-18.7C102.2,68.1,101.8,67,101.2,65.9"/>
	<path class="st0" d="M309.4,72.8c-0.3,0-0.5,0.1-0.9,0.3c-4.4,4.1-17.5,12.9-22.8,12.9c-1.4,0-2.6-0.6-2.1-2.9
		c1.6-8.7,9-15.9,15.2-19.4c1-0.6,1.9-0.9,2.5-0.9c0.9,0,1.3,0.5,1.3,1.3c0,0.9-0.6,2.1-1.9,3.5c-1.3,1.4-5.2,4.3-8.5,6.3
		c-0.6,0.3-0.9,0.9-0.9,1.2c0,0.3,0.2,0.6,0.8,0.4c5.2-1.3,11.6-5,12.8-9c0.1-0.4,0.2-0.9,0.2-1.4c0-3.2-2.6-7.5-5.6-7.5
		c-3.6,0-16,10.9-19.3,19.9c-3.8,3.9-7.8,7.4-9.7,7.4c-0.3,0-0.6-0.1-0.8-0.3c-0.2-0.3-0.2-0.6-0.2-0.9c0-2.9,3.1-9.8,7.3-17.2
		c4.5-8.1,10.4-16.7,15-21.8c0.4-0.4,1-0.8,1.4-0.8c0.3,0,0.5,0.2,0.7,0.2c0.3,0,0.8-0.7,0.8-1c0-1-2.4-3-4.5-3
		c-0.5,0-0.9,0.1-1.4,0.3c-2.8,1.9-9.8,13.3-15,22.5c-1,1.7-6.9,10.2-16.4,19.6c-1.4,1.4-3.4,2.9-4.3,2.9c-0.6,0-0.9-0.4-0.9-1.4
		c0-1,0.4-2.7,1.3-5.1c2.7-7.4,12-17.1,15.3-17.1c0.4,0,0.7,0.2,0.9,0.4c0.6,0.6,1.2,0.9,1.7,0.9c0.6,0,1-0.3,1-0.8
		c0-0.2-0.1-0.4-0.3-0.6c-1.5-1.7-3.9-3.7-6.3-3.7c-0.7,0-1.4,0.2-2,0.5c-4.5,2.6-11.8,10.8-15.1,18.8c-4.7,4.6-8,7-9.3,7
		c-0.5,0-0.8-0.2-0.6-1.2c0.7-3.3,3.2-8.1,5.4-11.5c0.3-0.6,0.5-1.1,0.5-1.9c0-1.5-0.9-2.7-2.2-2.7c-0.3,0-0.7,0.1-1.1,0.3
		c-2.7,1.1-12.6,11.3-16.9,14.7c-1.7,1.4-2.7,2-3.3,2c-0.3,0-0.5-0.3-0.5-0.7c0-0.4,0.1-1,0.4-1.8c4.9-11.3,16.2-19.3,20.8-19.3
		c0.8,0,1.4,0.3,1.7,0.9c0.3,0.5,0.8,0.9,1.1,0.9c0.4,0,1.1-0.3,0.8-1.5c-1-3.8-2.9-5-5-5c-0.9,0-2,0.3-3,0.7
		c-5.8,2.7-12.9,9.3-17.9,16.7c0,0-0.1,0-0.2,0c-0.4,0-1.1,0.3-1.9,1.2c-6,6.1-9.3,8.4-10.5,8.4c-0.5,0-0.7-0.3-0.7-0.9
		c0-1.3,0.7-3.1,2.7-6.9c3.5-6.3,5.2-9.1,5.2-12c0-0.7-0.1-1.3-0.4-1.8c-1.3-1.9-2.3-2.7-4.2-2.7c-3.6,0-9.1,3.6-17.8,12.3
		c-0.6,0.6-1,0.9-1.2,0.9c-0.1,0-0.1,0-0.1-0.2c0-0.2,0.2-0.8,0.8-1.6c3.9-5.8,6.6-10,6.6-13c0-1.7-0.9-3.1-3.1-4.1
		c-0.3-0.1-0.4,0.3-0.4,0.7c0,0.3,0.1,0.4,0.3,0.5c0.2,0.1,0.3,0.3,0.3,0.4c0,2-5.8,9.6-10.1,17c-0.1-0.1-0.2-0.2-0.3-0.2
		c-0.3,0-0.5,0.1-0.9,0.3c-4.4,4.1-17.5,12.9-22.8,12.9c-1.4,0-2.6-0.6-2.1-2.9c1.6-8.7,9-15.9,15.2-19.4c1-0.6,1.9-0.9,2.5-0.9
		c0.9,0,1.3,0.5,1.3,1.3c0,0.9-0.6,2.1-1.9,3.5c-1.3,1.4-5.2,4.3-8.5,6.3c-0.6,0.3-0.9,0.9-0.9,1.2c0,0.3,0.2,0.6,0.8,0.4
		c5.2-1.3,11.6-5,12.8-9c0.1-0.4,0.2-0.9,0.2-1.4c0-3.2-2.6-7.5-5.6-7.5c-3.8,0-17,11.8-19.7,21c-4.3,4.5-7.4,6.9-8.9,6.9
		c-0.6,0-0.9-0.4-0.9-1.3c0-1.9,1.6-6.1,5.2-12.8c1.5-2.8,2.4-5.7,2.4-8c0-2.8-1.3-4.8-4.1-4.8c-3.3,0-8.7,2.7-16.5,10.3
		c-0.5,0.4-0.9,0.6-1,0.6c-0.2,0-0.3-0.2-0.3-0.3c0-0.3,0.1-0.7,0.3-1.1c0.7-1.9,0.9-3.4,0.9-4.6c0-2.7-1.4-3.9-3.4-3.9
		c-2.4,0-5.7,1.6-8.8,4.6c-0.9,0.9-4.4,3.9-4.8,3.9c0.1-0.5,0.5-1.1,1-2.1c2.1-3.9,3.2-6.6,3.2-8.4c0-1.5-0.7-2.5-1.8-3.1
		c-0.2-0.1-0.3-0.2-0.5-0.2c-0.3,0-0.6,0.3-0.6,0.6c0,0.4,0.4,0.5,0.4,0.9c0,2.7-14.1,18.9-14.1,27.3c0,1.5,0.4,2.7,1.4,3.5
		c0.3,0.3,0.6,0.5,0.7,0.5c0.2,0,0.3-0.2,0.4-0.6c3.8-8.4,14.7-21,19.4-23.9c1.1-0.7,2-1,2.6-1c0.5,0,0.8,0.3,0.8,0.9
		c0,1-0.6,2.8-2.1,5.5c-3.8,6.9-6.1,11.9-6.1,15.1c0,1.3,0.4,2.2,1.2,2.8c0.9,0.7,1.5,0.9,1.9,0.9c0.3,0,0.5-0.2,0.6-0.5
		c5-14,20.1-25.5,24.3-25.5c0.7,0,1,0.3,1,0.9c0,0.5-0.3,1.2-0.7,2.1c-2.4,4.6-8.1,13.4-8.1,18.9c0,2.4,1,4.3,3.7,5
		c0.3,0.1,0.7,0.2,1,0.2c2.6,0,5.8-2.4,9.8-6.5v0c0,0.7,0.1,1.3,0.3,1.9c1,3.7,3.3,5.1,6.3,5.1c7,0,17.1-7.6,22.6-13.7
		c-1.9,3.6-3.4,6.9-3.4,9.3c0,1.3,0.4,2.3,1.4,3c0.4,0.3,1-0.4,1.2-0.9c2.7-7,21.3-23.8,25.8-23.8c0.6,0,0.9,0.3,0.9,1
		c0,1.2-1.1,3.6-3.6,7.5c-2.3,3.6-5.4,8.3-5.4,11.8c0,1.6,0.6,2.9,2.2,3.9c0.6,0.3,1.3,0.5,2.1,0.5c3.3,0,7.6-3.5,12.3-8.7
		c-0.4,0.7-0.8,1.4-1.2,2.2c-0.3,0.5-0.4,1.1-0.4,1.7c0,2.4,2.2,5,4.6,5c0.8,0,1.5-0.3,2.3-0.8c5.1-3.3,11.4-11.3,14.9-14.5
		c0.2-0.1,0.3-0.2,0.3-0.2c0.2,0,0.3,0.2,0.3,0.4c0,0.2-0.1,0.3-0.2,0.5c-2.1,3.9-3.3,7.2-3.3,9.7c0,2.5,1.1,4,3.2,4
		c0.7,0,1.6-0.2,2.6-0.6c1.6-0.6,4.3-2.8,7-5.3c-0.1,0.6-0.3,1.1-0.4,1.7c-0.5,3.3,3.3,5.9,5.7,5.9c0.4,0,0.9-0.1,1.3-0.3
		c2.9-2,11.3-11.2,14.7-16c-2.1,4.6-3.2,8.1-3.2,10.5c0,2.3,0.9,3.8,2.7,4.5c0.3,0.2,0.7,0.3,1,0.3c2.6,0,6.4-3.2,9.6-6.6
		c0,0.2,0,0.5,0,0.7c0,0.7,0.1,1.3,0.3,1.9c1,3.7,3.3,5.1,6.3,5.1c7.4,0,18.3-8.5,23.6-14.7c0.3-0.3,0.3-0.5,0.3-0.8
		C309.9,73,309.7,72.8,309.4,72.8"/>
	<path class="st0" d="M330.7,72.8c-2.6,2.8-6.5,6.9-10.5,9.8c-0.3,0.4-0.8,1.2-1.1,1.6c-2.5,3.2-7.5,5.6-11,5.6
		c-1,0-2.1-0.3-2.5-0.6c-0.5-0.4-0.9-0.9-0.9-1.3c0-0.7,0.7-1.5,2.5-2.3c6.5-3.3,9.9-6.1,9.9-8.8c0-1.4-0.8-2.7-2.3-4.1
		c-2.5-2.2-3.8-4.5-3.8-6.5c0-3.4,3.2-6.3,9.3-8.3c0.4-0.2,0.8-0.2,1.1-0.2c0.9,0,1.6,0.4,2.4,1.9c0.3,0.5,0.6,0.9,0.6,1.4
		c0,0.6-0.8,1.4-3.8,2.6c-3.7,1.5-5.5,3.3-5.5,5c0,0.9,0.3,1.6,1.1,2.4c2.5,2.5,4.7,4.4,4.7,6.9c0,0.5-0.1,1.1-0.3,1.7
		c0,0.1,0.1,0.2,0.2,0.2c0.1,0,0.3-0.1,0.3-0.2c2.4-1.6,5.8-4.9,8.5-7.6c0.3-0.3,0.5-0.4,0.8-0.4c0.3,0,0.6,0.3,0.6,0.5
		C331.1,72.2,331,72.4,330.7,72.8"/>
	<path class="st0" d="M193.5,142.4c0,0-40.5-13.8-85.8-8.1c-1,0.1-2,0.3-2.9,0.4c-2,0.2-2.6,0.3-2.8-0.2c-0.2-0.5,0.7-1.1,2.2-1.5
		c1.2-0.4,2.6-0.8,5.6-1.3c15-2.5,50.6-8.3,90.3,6.6C202.4,139.2,195.6,143.3,193.5,142.4"/>
	<path class="st0" d="M229.2,24.6c0.1-0.2-1.8-1.1-3.1-1.4c-1.4-0.4-3-0.7-6.5-1.2c-12.7-1.7-42.8-4.4-76-0.2c0-0.1,0-0.2,0.1-0.3
		c2.8-10.3,12.6-17.2,23.6-17.2c5.5,0,10.6,1.8,14.8,4.9c0.3,0.2,1,0.7,1.3,0.9c0.8,0.5,1.3-0.1,0.5-1c-0.2-0.3-0.6-0.7-0.9-0.9
		C178.1,3.1,171.4,0,164.1,0c-11.4,0-21.1,7.5-25,18c-0.2,0.5-0.9,3.2-1.1,4.5c-7.3,1.1-14.7,2.5-22.1,4.4c-3.1,0.8-6.1,1.7-9.2,2.5
		c-5.1,1.5,3.2,4.7,6.4,4.1c1.3-0.3,1.8-0.4,3.1-0.7c10.1-2.6,59.2-13,105.7-8.3c1,0.1,2.1,0.2,3.1,0.3c-1.7,2-5.9,7.3-12.1,18.3
		c-0.4,0.6,0.5,1,1.6,1.5c1.1,0.5,1.9,0.8,2.3,0.8c0.3,0,3-5.7,6.9-12.1c3.4-5.6,5.1-8,5.5-8.5C229.2,24.8,229.2,24.7,229.2,24.6"/>
	<path class="st0" d="M65.3,113.1c0.4,0.1,0.7,0.2,1.1,0.2c1.3,0,2.1-0.4,2.8-1.5c0.6-1,0.7-2.1,0.7-3.2c0-2.1-0.7-4.7-3.3-4.7
		c-0.5,0-0.9,0.1-1.4,0.1V113.1z M61.5,106c0-0.7,0-2.6-0.1-3.2c-0.1-0.4-0.4-0.9-0.8-1.1v-0.1H65c2.2,0,4.3-0.1,6.2,1.2
		c1.9,1.3,2.8,3.4,2.8,5.7c0,2-0.8,4.1-2.4,5.3c-1.9,1.5-3.9,1.4-6.3,1.4h-4.7v-0.1c1-0.6,0.9-1.8,0.9-2.9V106z"/>
	<path class="st0" d="M82.4,103.7v4.7c1.3-0.2,2.2-1.3,2.2-2.6c0-0.7-0.3-1.4-0.8-1.8c-0.4-0.2-0.8-0.3-1.2-0.3H82.4z M82.4,112.3
		c0,1.1-0.1,2.3,0.9,2.9v0.1h-5.6v-0.1c1-0.6,0.9-1.8,0.9-2.9v-7.7c0-1.1,0.1-2.3-0.9-2.9v-0.1h6.1c1,0,1.8,0,2.8,0.5
		c1.2,0.7,1.8,1.8,1.8,3.1c0,1.6-1.1,2.7-2.5,3.3l2.5,4.1c0.6,0.9,1.2,1.8,2,2.5l-2.9,0.2c-1.4,0.1-2-0.1-2.8-1.4l-2.4-4.5V112.3z"
		/>
	<path class="st0" d="M102.2,113.6c-0.8,1.2-2.1,1.9-3.6,1.9c-1.1,0-2.2-0.3-3-1.2c-0.9-1-1-2-1-3.2v-6.5c0-1.1,0.1-2.3-0.9-2.9
		v-0.1h5.5v0.1c-1,0.6-0.9,1.8-0.9,2.9v5.6c0,0.8,0,1.6,0.5,2.3c0.3,0.4,0.8,0.6,1.3,0.6c1.9,0,2-2.2,2-3.6v-5
		c0-1.1,0.1-2.3-0.9-2.9v-0.1h5.5v0.1c-1,0.6-0.9,1.8-0.9,2.9v7.7c0,1.1-0.1,2.3,0.9,2.9v0.1h-4.7V113.6z"/>
	<path class="st0" d="M122.2,101.8L122.2,101.8l4.9-0.1v0.1c-0.5,0.5-0.8,0.7-0.7,1.4l1,9c0.1,1.2,0.2,2.3,1.1,3.1v0.1h-5.5v-0.1
		c0.4-0.3,0.7-0.9,0.7-1.5l-0.7-7.3h-0.1l-2.7,9c-0.7-0.2-1.4-0.6-2-1c-1-0.6-1.2-1.5-1.6-2.6l-2-5.5h-0.1l-0.7,7.1
		c-0.1,0.7,0.3,1.3,0.9,1.6v0.1h-4.1v-0.1c0.9-0.7,1-1.8,1.1-2.9l1-8.7c0.1-0.8-0.2-1.4-0.8-1.9v-0.1h4.8v0.1l3.1,7.9L122.2,101.8z"
		/>
	<path class="st0" d="M143.5,101.8L143.5,101.8l4.9-0.1v0.1c-0.5,0.5-0.8,0.7-0.7,1.4l1,9c0.1,1.2,0.2,2.3,1.1,3.1v0.1h-5.5v-0.1
		c0.4-0.3,0.7-0.9,0.7-1.5l-0.7-7.3h-0.1l-2.7,9c-0.7-0.2-1.4-0.6-2-1c-1-0.6-1.2-1.5-1.6-2.6l-2-5.5h-0.1l-0.7,7.1
		c-0.1,0.7,0.3,1.3,0.9,1.6v0.1H132v-0.1c0.9-0.7,0.9-1.8,1.1-2.9l1-8.7c0.1-0.8-0.2-1.4-0.8-1.9v-0.1h4.8v0.1l3.1,7.9L143.5,101.8z
		"/>
	<path class="st0" d="M158.7,111.7c0.6,1,1.6,1.8,2.8,1.8c1.1,0,2.1-0.6,2.8-1.5c0.6-0.8,0.8-1.9,0.8-2.9c0-2.4-0.9-5.7-3.8-5.7
		c-2.4,0-3.5,2.3-3.5,4.5C157.7,109.1,158.1,110.7,158.7,111.7 M161.5,101.4c4.3,0,7.5,2.5,7.5,7.1c0,4.5-3.6,7.1-7.8,7.1
		c-4.2,0-7.5-2.8-7.5-7.1C153.7,104.1,157.3,101.4,161.5,101.4"/>
	<path class="st0" d="M185.5,115.7c-0.7,0-1.9-0.5-2.5-0.8c-1.5-0.8-1.9-1.5-2.9-2.8l-4-5.3h-0.1v5.5c0,1.2,0,2.1,0.9,3v0.1h-4v-0.1
		c0.9-0.8,0.9-1.8,0.9-3v-7.1c0-1.6-0.1-2.2-1.2-3.4v-0.1h4.3v0.1l6.4,8.3v-5.4c0-1.2,0-2.1-0.9-3v-0.1h4v0.1
		c-0.9,0.8-0.9,1.8-0.9,3V115.7z"/>
	<path class="st0" d="M195,113.1c0.4,0.1,0.7,0.2,1.1,0.2c1.3,0,2.1-0.4,2.8-1.5c0.6-1,0.7-2.1,0.7-3.2c0-2.1-0.7-4.7-3.3-4.7
		c-0.5,0-0.9,0.1-1.4,0.1V113.1z M191.2,106c0-0.7,0-2.6-0.1-3.2c-0.1-0.4-0.4-0.9-0.8-1.1v-0.1h4.4c2.2,0,4.3-0.1,6.2,1.2
		c1.9,1.3,2.8,3.4,2.8,5.7c0,2-0.8,4.1-2.4,5.3c-1.9,1.5-4,1.4-6.3,1.4h-4.7v-0.1c1-0.6,0.9-1.8,0.9-2.9V106z"/>
	<path class="st0" d="M217.5,104.3c0.1-0.4,0.3-0.8,0.3-1.2c0-0.7-0.4-1.1-0.9-1.4v-0.1h3.7v0.1l-4.8,14c-0.9-0.3-1.8-0.6-2.6-1
		c-1.1-0.7-1.4-1.3-1.9-2.5l-3.1-8.7c-0.2-0.7-0.5-1.3-1-1.8v-0.1h4.7v0.1l0,0.1c0,0.6,0.5,1.8,0.6,2.3l2.6,7.6L217.5,104.3z"/>
	<path class="st0" d="M228.5,112.4c0,1.1-0.1,2.2,0.9,2.9v0.1h-5.6v-0.1c1-0.6,0.9-1.8,0.9-2.9v-7.7c0-1.1,0.1-2.3-0.9-2.9v-0.1h5.6
		v0.1c-1,0.6-0.9,1.8-0.9,2.9V112.4z"/>
	<path class="st0" d="M237.9,113c0.7,0.3,1.4,0.4,2.2,0.4c1.1,0,2-0.2,2.9-0.9l-0.8,2.9h-9v-0.1c1-0.6,0.9-1.8,0.9-2.9v-7.7
		c0-1.1,0.1-2.3-0.9-2.9v-0.1h5.6v0.1c-1,0.6-0.9,1.8-0.9,2.9V113z"/>
	<path class="st0" d="M251.3,113c0.7,0.3,1.4,0.4,2.2,0.4c1.1,0,2-0.2,2.9-0.9l-0.8,2.9h-9v-0.1c1-0.6,0.9-1.8,0.9-2.9v-7.7
		c0-1.1,0.1-2.3-0.9-2.9v-0.1h5.6v0.1c-1,0.6-0.9,1.8-0.9,2.9V113z"/>
	<path class="st0" d="M264.7,113c0.7,0.3,1.4,0.3,2.2,0.3c1.2,0,2.2-0.2,3-1.1h0.1l-0.8,3.1H260v-0.1c1-0.6,0.9-1.8,0.9-2.9v-7.7
		c0-1.1,0.1-2.3-0.9-2.9v-0.1h7.2c0.3,0,0.6,0,0.9-0.1h0.1v3h-0.1c-0.6-1-1.7-0.9-2.8-0.9h-0.7v3.4h1.9c0.3,0,0.6,0,0.8-0.1h0.1v2.9
		h-0.1c-0.3-0.8-1.2-0.7-2-0.7h-0.7V113z"/>
</g>
</svg>
