<svg xmlns="http://www.w3.org/2000/svg" viewBox="0 0 241.25 72.22"><defs><style>.cls-1{fill:#939598}.cls-2{fill:#ef3742}.cls-3{fill:#bcbdc0}</style></defs><g id="Layer_2" data-name="Layer 2"><g id="Layer_1-2" data-name="Layer 1"><path class="cls-1" d="M2.59 72.13H0v-7.65h2a3.52 3.52 0 011.48.25 2 2 0 01.81.7 2 2 0 01.27 1 1.65 1.65 0 01-1.16 1.61 2.4 2.4 0 011.33.69A1.82 1.82 0 015.24 70a1.89 1.89 0 01-.3 1 2.14 2.14 0 01-.89.75 3.3 3.3 0 01-1.46.29M2 65.45h-.9v2.3h.72a1.87 1.87 0 001.25-.33 1.1 1.1 0 00.37-.87c0-.73-.44-1.1-1.44-1.1zm.08 3.28h-1v2.43h1.1A3.55 3.55 0 003.39 71a1.18 1.18 0 00.52-.44 1.14 1.14 0 00.19-.64 1.08 1.08 0 00-.2-.64 1.29 1.29 0 00-.58-.43 3.91 3.91 0 00-1.2-.12z"/><path class="cls-1" d="M7.25 64.48h1.1v7.65h-1.1z"/><path class="cls-1" d="M10.96 64.48h4.34v.97h-3.24v2.33h3.13v.99h-3.13v2.37h3.35v.98h-4.45v-7.64"/><path class="cls-1" d="M23.57 64.48h1.05v7.65h-.95l-5.11-5.9v5.9h-1.03v-7.65h.88l5.16 5.94v-5.94"/><path class="cls-1" d="M26.78 69.11h2.73v1.07h-2.73z"/><path class="cls-1" d="M35.65 68.59h-2.94v2.72H36v.82h-4.27v-7.56h4.08v.82h-3.1v2.39h2.94v.81m-1.52-5.7l1.18 1.28h-.83l-.71-.78-.72.78h-.81l1.16-1.28z"/><path class="cls-1" d="M37.51 64.47h6.4v.97h-2.67v6.69h-1.11v-6.69h-2.62v-.97"/><path class="cls-1" d="M45.89 72.13v-7.65h1.92a2.76 2.76 0 011.84.57 2 2 0 01-.65 3.44 3.13 3.13 0 01.72.66 13.35 13.35 0 011 1.45c.26.44.48.76.64 1l.4.55h-1.3l-.33-.5-.07-.1-.21-.3-.34-.56-.37-.6a5.88 5.88 0 00-.62-.75 2.57 2.57 0 00-.51-.4 1.78 1.78 0 00-.77-.12H47v3.33h-1.1m1.43-6.72H47v2.41h.42a3 3 0 001.14-.14 1.05 1.05 0 00.48-.43 1.29 1.29 0 00.17-.65 1.18 1.18 0 00-.19-.66 1.06 1.06 0 00-.54-.41 3.91 3.91 0 00-1.16-.14z"/><path class="cls-1" d="M53.56 64.48h4.34v.97h-3.25v2.33h3.14v.99h-3.14v2.37H58v.98h-4.44v-7.64"/><path class="cls-2" d="M64.07 72.13v-7.66h2.42a2.47 2.47 0 011.75.59 2 2 0 01.65 1.59 2.14 2.14 0 01-.33 1.18 2 2 0 01-.92.75 4.74 4.74 0 01-1.66.23h-.81v3.32h-1.1m2.23-6.69h-1.13v2.39h1.2a1.53 1.53 0 001-.31 1.13 1.13 0 00.36-.9c.03-.79-.46-1.18-1.43-1.18z"/><path class="cls-2" d="M70.77 64.48h4.34v.97h-3.25v2.33H75v.99h-3.14v2.37h3.35v.98h-4.44v-7.64"/><path class="cls-2" d="M77.33 72.13v-7.65h1.92a2.77 2.77 0 011.84.57 1.92 1.92 0 01.68 1.56 2 2 0 01-.33 1.15 1.94 1.94 0 01-1 .73 3.6 3.6 0 01.72.66 13.64 13.64 0 011 1.45c.27.44.48.76.65 1l.4.55h-1.3l-.34-.5-.06-.1-.22-.3-.29-.58-.36-.6a6.87 6.87 0 00-.62-.75 2.57 2.57 0 00-.51-.4 1.81 1.81 0 00-.77-.12h-.28v3.33h-1.1m1.42-6.72h-.32v2.41h.41a3 3 0 001.13-.14 1.08 1.08 0 00.49-.43 1.29 1.29 0 00.17-.65 1.18 1.18 0 00-.19-.66 1.06 1.06 0 00-.54-.41 3.94 3.94 0 00-1.18-.12z"/><path class="cls-2" d="M85 64.48h4.09v.97H86.1v2.14h2.99v.97H86.1v3.57H85v-7.65"/><path class="cls-2" d="M94.94 64.37a4.11 4.11 0 013 1.12 3.72 3.72 0 011.18 2.82 3.67 3.67 0 01-1.19 2.8 4.23 4.23 0 01-3 1.11A4 4 0 0192 71.11a3.7 3.7 0 01-1.15-2.78A3.81 3.81 0 0192 65.49a4 4 0 012.94-1.12m0 1a3 3 0 00-2.16.82 2.83 2.83 0 00-.85 2.1 2.78 2.78 0 00.85 2.06 3.15 3.15 0 004.26 0 2.77 2.77 0 00.86-2.09 2.69 2.69 0 00-.86-2 2.91 2.91 0 00-2.04-.85z"/><path class="cls-2" d="M101.37 72.13v-7.65h1.92a2.77 2.77 0 011.84.57 1.92 1.92 0 01.68 1.56 2 2 0 01-.33 1.15 1.94 1.94 0 01-1 .73 3.13 3.13 0 01.72.66 15 15 0 011 1.45c.26.44.48.76.64 1l.4.55H106l-.34-.5-.06-.1-.22-.3-.33-.56-.37-.6a6.87 6.87 0 00-.62-.75 2.57 2.57 0 00-.51-.4 1.78 1.78 0 00-.77-.12h-.28v3.33h-1.1m1.43-6.72h-.33v2.41h.41a3 3 0 001.15-.14 1.11 1.11 0 00.48-.43 1.29 1.29 0 00.17-.65 1.18 1.18 0 00-.19-.66 1.06 1.06 0 00-.54-.41 3.91 3.91 0 00-1.18-.14z"/><path class="cls-2" d="M115.12 64.48h1.03v7.65h-1.1v-5.96l-2.36 2.96h-.2l-2.38-2.96v5.96h-1.1v-7.65h1.04l2.54 3.14 2.53-3.14"/><path class="cls-2" d="M121.16 64.43h.77l3.43 7.7h-1.12l-1-2.27H120l-1 2.27h-1.13l3.29-7.7m1.61 4.46l-1.23-2.78-1.15 2.78z"/><path class="cls-2" d="M133.2 64.48h1.04v7.65h-.94l-5.12-5.9v5.9h-1.03v-7.65h.89l5.16 5.94v-5.94"/><path class="cls-2" d="M143.4 70.35v1.21a5.71 5.71 0 01-2.78.66 4.24 4.24 0 01-2.18-.52 3.63 3.63 0 01-1.44-1.42 3.8 3.8 0 01-.52-2 3.7 3.7 0 011.19-2.81 4.08 4.08 0 012.94-1.14 6.94 6.94 0 012.68.63v1.18a5.21 5.21 0 00-2.63-.77 3.05 3.05 0 00-2.18.83 2.92 2.92 0 000 4.15 3 3 0 002.18.81 5 5 0 002.72-.86"/><path class="cls-2" d="M145.67 64.48H150v.97h-3.24v2.33h3.14v.99h-3.14v2.37h3.35v.98h-4.44v-7.64"/><path class="cls-1" d="M158.13 68.92l-.83-.5a4 4 0 01-1.12-.94 1.81 1.81 0 01-.33-1.07 1.89 1.89 0 01.63-1.47 2.37 2.37 0 011.63-.56 3.09 3.09 0 011.76.54v1.24a2.55 2.55 0 00-1.78-.8 1.53 1.53 0 00-.89.25.76.76 0 00-.34.64 1 1 0 00.25.64 3.33 3.33 0 00.82.63l.84.5a2.46 2.46 0 011.4 2.13 2 2 0 01-.62 1.49 2.22 2.22 0 01-1.6.58 3.36 3.36 0 01-2.07-.7v-1.39a2.59 2.59 0 002.06 1.12 1.31 1.31 0 00.86-.28.92.92 0 00.34-.72c0-.47-.34-.91-1-1.33"/><path class="cls-1" d="M168.89 70.35v1.21a5.68 5.68 0 01-2.78.66 4.24 4.24 0 01-2.18-.52 3.7 3.7 0 01-1.41-1.42 3.8 3.8 0 01-.52-2 3.7 3.7 0 011.19-2.81 4.08 4.08 0 012.94-1.14 6.9 6.9 0 012.68.63v1.18a5.21 5.21 0 00-2.63-.77 3.05 3.05 0 00-2.18.83 2.92 2.92 0 000 4.15 3 3 0 002.18.81 5 5 0 002.72-.86"/><path class="cls-1" d="M176.48 64.48h1.11v4.34a5.4 5.4 0 01-.13 1.33 3.31 3.31 0 01-.32.75 2.63 2.63 0 01-.46.54 4.05 4.05 0 01-4.78 0 2.68 2.68 0 01-.47-.54 3.34 3.34 0 01-.31-.73 5.56 5.56 0 01-.12-1.36v-4.33h1.1v4.34a3.13 3.13 0 00.25 1.5 1.72 1.72 0 00.75.68 2.58 2.58 0 001.19.25 2.41 2.41 0 001.59-.51 1.52 1.52 0 00.46-.64 3.89 3.89 0 00.14-1.28v-4.34"/><path class="cls-1" d="M180.02 64.48h1.1v6.65h3.44v1h-4.54v-7.65"/><path class="cls-1" d="M186.38 72.13v-7.66h2.43a2.49 2.49 0 011.75.59 2 2 0 01.65 1.59 2.14 2.14 0 01-.33 1.18 2 2 0 01-.92.75 4.78 4.78 0 01-1.66.23h-.82v3.32h-1.1m2.24-6.69h-1.14v2.39h1.2a1.51 1.51 0 001-.31 1.11 1.11 0 00.37-.9c.03-.79-.46-1.18-1.43-1.18z"/><path class="cls-1" d="M192.43 64.47h6.4v.97h-2.67v6.69h-1.1v-6.69h-2.63v-.97"/><path class="cls-1" d="M206.11 64.48h1.1v4.34a5 5 0 01-.13 1.33 2.91 2.91 0 01-.32.75 2.36 2.36 0 01-.46.54 4.05 4.05 0 01-4.78 0 2.36 2.36 0 01-.46-.54 2.59 2.59 0 01-.31-.73 5 5 0 01-.13-1.36v-4.33h1.1v4.34a3.26 3.26 0 00.25 1.5 1.84 1.84 0 00.75.68 2.61 2.61 0 001.19.25 2.41 2.41 0 001.59-.51 1.52 1.52 0 00.46-.64 3.83 3.83 0 00.15-1.28v-4.34"/><path class="cls-1" d="M209.68 72.13v-7.65h1.92a2.77 2.77 0 011.84.57 2 2 0 01.68 1.56 1.91 1.91 0 01-1.29 1.88 3.6 3.6 0 01.72.66 13.64 13.64 0 011 1.45c.27.44.48.76.64 1l.41.55h-1.3l-.34-.5-.06-.1-.22-.3-.34-.56-.36-.6a8.25 8.25 0 00-.62-.75 2.34 2.34 0 00-.52-.4 1.72 1.72 0 00-.76-.12h-.29v3.33h-1.09m1.42-6.72h-.33v2.41h.42a3 3 0 001.14-.14 1.08 1.08 0 00.49-.43 1.29 1.29 0 00.17-.65 1.27 1.27 0 00-.19-.66 1.06 1.06 0 00-.54-.41 4 4 0 00-1.18-.14z"/><path class="cls-1" d="M217.35 64.48h1.1v7.65h-1.1z"/><path class="cls-1" d="M223 68.92l-.83-.5a3.92 3.92 0 01-1.11-.94 1.82 1.82 0 01-.34-1.07 1.89 1.89 0 01.63-1.47 2.37 2.37 0 011.63-.56 3.07 3.07 0 011.76.54v1.24a2.53 2.53 0 00-1.78-.8 1.5 1.5 0 00-.88.25.77.77 0 00-.35.64 1 1 0 00.26.64 3.25 3.25 0 00.81.63l.84.5a2.45 2.45 0 011.4 2.13 1.94 1.94 0 01-.61 1.49 2.26 2.26 0 01-1.61.58 3.33 3.33 0 01-2.06-.7v-1.39a2.56 2.56 0 002.05 1.12 1.29 1.29 0 00.86-.28.89.89 0 00.34-.72c0-.47-.33-.91-1-1.33"/><path class="cls-1" d="M233.22 64.48h1.02v7.65h-1.1v-5.96l-2.36 2.96h-.2l-2.38-2.96v5.96h-1.09v-7.65h1.03l2.55 3.14 2.53-3.14"/><path class="cls-1" d="M236.81 64.48h4.34v.97h-3.25v2.33h3.14v.99h-3.14v2.37h3.35v.98h-4.44v-7.64"/><path class="cls-2" d="M115.17 20.29v3.44h-8.25v4.19h8.25v3.44h-8.25v7.69h-4.68V20.29h12.93"/><path class="cls-2" d="M122.46 20.29h4.68v18.77h-4.68z"/><path class="cls-2" d="M151.84 20.29v3.44h-6.8v15.32h-4.67V23.73h-6.8v-3.44h18.27"/><path class="cls-2" d="M177.14 20.29v18.76h-3.95l-10.36-12.02v12.02h-4.67V20.29h4.28l10.03 11.47V20.29h4.67"/><path class="cls-2" d="M198.69 35.62v3.43h-13.84V20.29h13.65v3.44h-8.97v3.93h8.55v3.44h-8.55v4.52h9.16"/><path class="cls-2" d="M218.44 21.5v3.66a15.68 15.68 0 00-5.95-1.68 4.08 4.08 0 00-2 .43 1.26 1.26 0 00-.75 1.12 1.37 1.37 0 00.54 1 9.68 9.68 0 002.62 1.25 29.55 29.55 0 013.33 1.42 6.58 6.58 0 012.16 1.86 4.86 4.86 0 01.9 3 5 5 0 01-2 4.15 8.25 8.25 0 01-5.22 1.55 13.82 13.82 0 01-6.77-1.82v-4a18.61 18.61 0 003.33 1.84 8.19 8.19 0 003.08.58c1.84 0 2.75-.58 2.75-1.73a1.53 1.53 0 00-.55-1.12 8.63 8.63 0 00-2.65-1.27 26.8 26.8 0 01-3.33-1.4 6.29 6.29 0 01-2.12-1.84 5 5 0 01-.9-3.06 4.68 4.68 0 012-3.91 8.39 8.39 0 015.21-1.48 16 16 0 016.36 1.45"/><path class="cls-2" d="M238.5 21.5v3.66a15.72 15.72 0 00-6-1.68 4 4 0 00-2 .43 1.26 1.26 0 00-.75 1.12 1.37 1.37 0 00.54 1A9.52 9.52 0 00233 27.3a29.55 29.55 0 013.33 1.42 6.45 6.45 0 012.15 1.86 4.8 4.8 0 01.91 3 5 5 0 01-2 4.15 8.25 8.25 0 01-5.22 1.55 13.82 13.82 0 01-6.77-1.82v-4a18 18 0 003.33 1.84 8.15 8.15 0 003.08.58c1.83 0 2.75-.58 2.75-1.73A1.53 1.53 0 00234 33a8.76 8.76 0 00-2.65-1.27 26.8 26.8 0 01-3.33-1.4 6.42 6.42 0 01-2.13-1.84 5 5 0 01-.89-3.06 4.68 4.68 0 012-3.91 8.37 8.37 0 015.21-1.48 16 16 0 016.36 1.45"/><path class="cls-3" d="M.32 39.2V19.08h17.24A5.18 5.18 0 0121 20a3.74 3.74 0 011.06 3v2.46a3.06 3.06 0 01-.89 2.31 4.33 4.33 0 01-2.57 1.08 4.25 4.25 0 012.68 1.24 3.66 3.66 0 01.94 2.62v2.57a3.32 3.32 0 01-1.47 3 8.14 8.14 0 01-4.45 1H.32M15.6 22.36H4.92v4.79H15.6a3.18 3.18 0 001.68-.32 1.28 1.28 0 00.47-1.12V23.8a1.27 1.27 0 00-.47-1.11 3.07 3.07 0 00-1.68-.33m0 8.1H4.92v5.12H15.6a2.85 2.85 0 001.79-.4 1.73 1.73 0 00.47-1.41v-1.52a1.72 1.72 0 00-.47-1.4 2.93 2.93 0 00-1.79-.39"/><path class="cls-3" d="M31.26 19.08h4.68v20.11h-4.68z"/><path class="cls-3" d="M45.8 23.85c0-1.83.34-3.08 1-3.76s2-1 4-1h14.79c2 0 3.27.34 4 1s1 1.93 1 3.76v10.59c0 1.84-.34 3.09-1 3.76s-2 1-4 1H50.78c-2 0-3.27-.33-4-1s-1-1.92-1-3.76V23.85m20.11-1.17H50.48v12.73h15.43z"/><path class="cls-2" d="M74 10a.36.36 0 11-.36-.36.36.36 0 01.36.36"/><path class="cls-2" d="M73.47 8.37a.61.61 0 11-.6-.6.6.6 0 01.6.6"/><path class="cls-2" d="M73.37 6.34a.61.61 0 01-.61.61.61.61 0 01-.61-.61.62.62 0 01.61-.61.61.61 0 01.61.61"/><path class="cls-2" d="M73.27 4.32a.71.71 0 11-.71-.72.71.71 0 01.71.72"/><path class="cls-2" d="M74.89 1.93A1.07 1.07 0 1173.83.86a1.06 1.06 0 011.06 1.07"/><path class="cls-2" d="M76.31 8.6a.35.35 0 01-.66-.25.35.35 0 01.46-.21.36.36 0 01.2.46"/><path class="cls-2" d="M76.41 7a.61.61 0 01-.79.35.61.61 0 01-.35-.79.61.61 0 111.14.44"/><path class="cls-2" d="M77 5a.61.61 0 01-.79.35.61.61 0 01-.35-.79.62.62 0 01.79-.35A.61.61 0 0177 5"/><path class="cls-2" d="M77.68 3.09a.72.72 0 01-.92.41.71.71 0 11.92-.41"/><path class="cls-2" d="M80.05 1.45a1.07 1.07 0 11-.61-1.38 1.07 1.07 0 01.61 1.38"/><path class="cls-2" d="M78.68 8.05a.35.35 0 01-.5 0 .36.36 0 010-.5.35.35 0 11.52.48"/><path class="cls-2" d="M79.38 6.55a.61.61 0 01-.86 0 .61.61 0 11.82-.9.61.61 0 010 .86"/><path class="cls-2" d="M80.68 5a.6.6 0 01-.86 0 .61.61 0 11.82-.89.6.6 0 010 .86"/><path class="cls-2" d="M82 3.43a.7.7 0 01-1 0 .71.71 0 111-1 .7.7 0 010 1"/><path class="cls-2" d="M84.79 2.78a1.07 1.07 0 11-.06-1.51 1.07 1.07 0 01.06 1.51"/><path class="cls-2" d="M81 8.29a.36.36 0 11.18-.47.36.36 0 01-.18.47"/><path class="cls-2" d="M82.18 7.17a.61.61 0 01-.81-.3.6.6 0 01.3-.8.61.61 0 11.51 1.1"/><path class="cls-2" d="M84 6.24a.6.6 0 11-.5-1.1.6.6 0 01.5 1.1"/><path class="cls-2" d="M85.79 5.31A.71.71 0 0185.2 4a.71.71 0 01.59 1.29"/><path class="cls-2" d="M88.63 5.81a1.07 1.07 0 11-.88-1.94 1.07 1.07 0 01.88 1.94"/><path class="cls-2" d="M83.51 9.65a.36.36 0 01-.06-.71.36.36 0 01.38.33.36.36 0 01-.32.38"/><path class="cls-2" d="M85 9a.61.61 0 11.56-.66A.6.6 0 0185 9"/><path class="cls-2" d="M87 8.74a.61.61 0 11.56-.66.6.6 0 01-.56.66"/><path class="cls-2" d="M89.06 8.47a.71.71 0 11.65-.77.72.72 0 01-.65.77"/><path class="cls-2" d="M91.57 9.88a1.06 1.06 0 01-1.15-1 1.07 1.07 0 111.15 1"/><path class="cls-2" d="M85.23 11.62a.36.36 0 01-.24-.44.36.36 0 01.69.2.36.36 0 01-.45.24"/><path class="cls-2" d="M86.89 11.59a.61.61 0 01-.41-.76.6.6 0 01.75-.41.61.61 0 01.41.76.6.6 0 01-.75.41"/><path class="cls-2" d="M88.86 12.07a.6.6 0 01-.41-.75.61.61 0 11.41.75"/><path class="cls-2" d="M90.83 12.55a.71.71 0 11.88-.47.69.69 0 01-.88.47"/><path class="cls-2" d="M92.65 14.79a1.06 1.06 0 111.35-.71 1.07 1.07 0 01-1.33.71"/><path class="cls-2" d="M86.13 14a.36.36 0 11.5 0 .36.36 0 01-.5 0"/><path class="cls-2" d="M87.66 14.64a.63.63 0 01-.08-.86.61.61 0 01.94.78.61.61 0 01-.86.08"/><path class="cls-2" d="M89.3 15.85a.59.59 0 01-.08-.85.6.6 0 11.93.77.59.59 0 01-.85.08"/><path class="cls-2" d="M90.93 17.06a.7.7 0 01-.1-1 .71.71 0 011-.09.7.7 0 01.1 1 .71.71 0 01-1 .09"/><path class="cls-2" d="M91.74 19.83a1.06 1.06 0 111.5-.14 1.06 1.06 0 01-1.5.14"/><path class="cls-2" d="M85.78 16.85a.36.36 0 11.49.1.35.35 0 01-.49-.1"/><path class="cls-2" d="M87.06 17.9a.61.61 0 01.18-.84.6.6 0 01.84.18.61.61 0 11-1 .66"/><path class="cls-2" d="M88.24 19.55a.61.61 0 01.18-.84.6.6 0 01.84.18.59.59 0 01-.18.84.61.61 0 01-.84-.18"/><path class="cls-2" d="M89.43 21.2a.71.71 0 111 .21.71.71 0 01-1-.21"/><path class="cls-2" d="M89.35 24.08a1.07 1.07 0 01.32-1.47 1.07 1.07 0 011.16 1.79 1.07 1.07 0 01-1.48-.32"/><path class="cls-2" d="M85.09 19.2a.36.36 0 01.28-.42.36.36 0 01.14.7.37.37 0 01-.42-.28"/><path class="cls-2" d="M85.91 20.64a.61.61 0 01.47-.72.61.61 0 01.72.47.61.61 0 01-1.19.25"/><path class="cls-2" d="M86.42 22.61a.61.61 0 11.72.47.61.61 0 01-.72-.47"/><path class="cls-2" d="M86.93 24.57a.71.71 0 111.39-.28.71.71 0 01-1.39.28"/><path class="cls-2" d="M85.82 27.24a1.07 1.07 0 111.26.83 1.07 1.07 0 01-1.26-.83"/><path class="cls-2" d="M83.12 21.33a.36.36 0 11.31.4.36.36 0 01-.31-.4"/><path class="cls-2" d="M83.4 23a.61.61 0 01.69-.52.61.61 0 01-.17 1.21.62.62 0 01-.52-.69"/><path class="cls-2" d="M83.22 25a.61.61 0 011.21.17.61.61 0 01-.69.52.62.62 0 01-.52-.69"/><path class="cls-2" d="M83 27a.71.71 0 01.8-.61.71.71 0 11-.2 1.41.7.7 0 01-.6-.8"/><path class="cls-2" d="M81.1 29.14a1.05 1.05 0 011.2-.9 1.07 1.07 0 11-1.2.9"/><path class="cls-2" d="M81.81 33.58a.35.35 0 01-.46-.2.36.36 0 01.67-.26.35.35 0 01-.21.46"/><path class="cls-2" d="M83.1 32.54a.61.61 0 01-.45-1.14.61.61 0 01.45 1.14"/><path class="cls-2" d="M85 31.7a.6.6 0 01-.79-.34.61.61 0 011.13-.45.6.6 0 01-.34.79"/><path class="cls-2" d="M86.8 30.87a.71.71 0 01-.92-.4.71.71 0 111.33-.47.71.71 0 01-.41.92"/><path class="cls-2" d="M89.62 31.51a1.08 1.08 0 01-1.39-.6 1.07 1.07 0 012-.78 1.08 1.08 0 01-.6 1.38"/><path class="cls-2" d="M83.92 35.26a.35.35 0 01-.36-.35.36.36 0 01.36-.36.35.35 0 01.35.35.35.35 0 01-.35.36"/><path class="cls-2" d="M85.49 34.75a.61.61 0 010-1.22.61.61 0 010 1.22"/><path class="cls-2" d="M87.52 34.64a.61.61 0 01-.61-.61.6.6 0 01.6-.61.61.61 0 010 1.22"/><path class="cls-2" d="M89.55 34.52a.71.71 0 01-.72-.7.72.72 0 111.43 0 .71.71 0 01-.71.71"/><path class="cls-2" d="M91.94 36.14A1.07 1.07 0 1193 35.07a1.07 1.07 0 01-1.06 1.07"/><path class="cls-2" d="M85.3 37.27a.34.34 0 01-.2-.46.35.35 0 01.45-.2.35.35 0 01.21.46.36.36 0 01-.46.2"/><path class="cls-2" d="M87 37.37a.61.61 0 11.79-.35.62.62 0 01-.79.35"/><path class="cls-2" d="M88.87 38a.61.61 0 01-.34-.79.61.61 0 11.34.79"/><path class="cls-2" d="M90.8 38.65a.71.71 0 11.92-.4.71.71 0 01-.92.4"/><path class="cls-2" d="M92.43 41a1.07 1.07 0 01-.6-1.38 1.05 1.05 0 011.38-.6 1.06 1.06 0 11-.78 2"/><path class="cls-2" d="M85.91 39.47a.35.35 0 11.49-.47.35.35 0 01-.49.51"/><path class="cls-2" d="M87.39 40.2a.59.59 0 010-.86.61.61 0 01.87.85.6.6 0 01-.86 0"/><path class="cls-2" d="M88.91 41.54a.6.6 0 010-.86.61.61 0 01.86 0 .61.61 0 01-.85.87"/><path class="cls-2" d="M90.44 42.89a.71.71 0 010-1 .72.72 0 011 0 .71.71 0 01-1 1"/><path class="cls-2" d="M91 45.71a1.06 1.06 0 111.51 0 1.07 1.07 0 01-1.51 0"/><path class="cls-2" d="M85.57 42.35a.35.35 0 01.16-.48.35.35 0 01.47.16.35.35 0 01-.16.48.36.36 0 01-.47-.16"/><path class="cls-2" d="M86.72 43.53a.62.62 0 01.27-.82.62.62 0 01.82.28.61.61 0 01-.28.82.6.6 0 01-.81-.28"/><path class="cls-2" d="M87.71 45.31a.6.6 0 01.27-.82.61.61 0 11.54 1.09.6.6 0 01-.81-.27"/><path class="cls-2" d="M88.7 47.08a.71.71 0 111.3-.62.71.71 0 01-.32.95.7.7 0 01-1-.33"/><path class="cls-2" d="M88.29 49.94a1.07 1.07 0 01.49-1.43 1.06 1.06 0 11-.49 1.43"/><path class="cls-2" d="M84.36 44.67a.35.35 0 01.32-.38.36.36 0 01.39.32.35.35 0 01-.32.38.36.36 0 01-.39-.32"/><path class="cls-2" d="M85 46.2a.61.61 0 111.21-.1.61.61 0 01-1.21.1"/><path class="cls-2" d="M85.26 48.21a.63.63 0 01.56-.66.62.62 0 01.66.56.61.61 0 11-1.22.1"/><path class="cls-2" d="M85.54 50.22a.69.69 0 01.64-.76.72.72 0 01.77.65.71.71 0 01-.65.76.69.69 0 01-.76-.65"/><path class="cls-2" d="M84.12 52.74a1.06 1.06 0 011-1.15 1.06 1.06 0 11.17 2.12 1.06 1.06 0 01-1.14-1"/><path class="cls-2" d="M82.45 46.38a.35.35 0 01.44-.22.35.35 0 01.23.45.35.35 0 01-.44.22.35.35 0 01-.23-.45"/><path class="cls-2" d="M82.44 48a.61.61 0 01.77-.39.61.61 0 01.39.76.61.61 0 11-1.16-.37"/><path class="cls-2" d="M81.91 50a.61.61 0 01.77-.39.6.6 0 01.38.77.61.61 0 01-.76.39.6.6 0 01-.39-.77"/><path class="cls-2" d="M81.37 52a.71.71 0 111.35.44.71.71 0 01-1.35-.44"/><path class="cls-2" d="M79.09 53.72a1.06 1.06 0 11.68 1.34 1.06 1.06 0 01-.68-1.34"/><path class="cls-2" d="M79.7 47.09a.34.34 0 01.49-.08.35.35 0 11-.41.57.34.34 0 01-.08-.49"/><path class="cls-2" d="M79.19 48.66a.62.62 0 01.85-.14.61.61 0 01.13.85.59.59 0 01-.84.14.6.6 0 01-.14-.85"/><path class="cls-2" d="M78.08 50.36a.61.61 0 11.14.85.61.61 0 01-.14-.85"/><path class="cls-2" d="M77 52.07a.71.71 0 11.16 1 .7.7 0 01-.16-1"/><path class="cls-2" d="M74.26 53.05a1.08 1.08 0 011.49-.24 1.07 1.07 0 11-1.25 1.73 1.08 1.08 0 01-.24-1.49"/><path class="cls-2" d="M77.25 47.3a.37.37 0 01.5.11.36.36 0 01-.6.39.37.37 0 01.1-.5"/><path class="cls-2" d="M76.21 48.59a.61.61 0 11.67 1 .62.62 0 01-.85-.18.61.61 0 01.18-.84"/><path class="cls-2" d="M74.57 49.78a.61.61 0 01.66 1 .6.6 0 01-.84-.17.61.61 0 01.18-.85"/><path class="cls-2" d="M72.92 51a.71.71 0 11-.2 1 .7.7 0 01.2-1"/><path class="cls-2" d="M70 50.92a1.06 1.06 0 111.2 1.78 1.06 1.06 0 01-1.2-1.78"/><path class="cls-2" d="M74.55 46.25a.36.36 0 11-.26.42.34.34 0 01.26-.42"/><path class="cls-2" d="M73.14 47.1a.61.61 0 01.28 1.19.6.6 0 01-.73-.45.61.61 0 01.45-.74"/><path class="cls-2" d="M71.19 47.67a.61.61 0 01.73.46.61.61 0 11-.73-.46"/><path class="cls-2" d="M69.24 48.24a.71.71 0 11-.53.86.72.72 0 01.53-.86"/><path class="cls-2" d="M66.54 47.21a1.08 1.08 0 011.29.79 1.07 1.07 0 11-1.29-.79"/></g></g></svg>